<svg xmlns="http://www.w3.org/2000/svg" xmlns:xlink="http://www.w3.org/1999/xlink" version="1.1" x="0px" y="0px" width="100px" height="100px" viewBox="0 0 100 100" enable-background="new 0 0 100 100" xml:space="preserve">
<g id="Captions">
</g>
<g id="Your_Icon">
	<path fill-rule="evenodd" clip-rule="evenodd" d="M92.332,28.72c-0.12-1.455-0.761-2.191-2.01-2.302   c-0.756-0.838-1.422-0.83-2.569,0.028c-0.631-0.083-1.262,0.146-1.615,0.549c-1.411,1.611-3.319,2.645-4.757,4.211   c-0.385,0.419-0.673,0.963-1.125,1.274c-1.558,1.075-2.713,2.525-3.864,3.979c-0.436,0.549-0.7,0.597-1.219,0.061   c-0.687-0.712-1.246-1.591-2.213-2l-0.055,0.012c0.128-0.119,0.12-0.228-0.022-0.327c-0.191-0.294-0.466-0.202-0.729-0.158   c-0.015-0.734-0.719-0.712-1.128-0.987c-0.477-0.321-1.188-0.404-1.517-0.815c-2.867-3.596-3.904-7.588-2.948-12.199   c0.646-3.106,3.301-4.95,4.332-7.799c0.269-0.742,0.403-1.51,0.072-1.816c-0.688-0.637-0.68-2.143-2.135-1.88l0,0   c-0.576-0.184-1.151-0.368-1.727-0.552c-0.014-0.723-0.639-0.944-1.107-1.003c-1.196-0.146-1.81-0.718-1.967-1.907   c-0.043-0.321-0.164-0.856-0.605-0.847c-0.408,0.009-0.52,0.515-0.651,0.844c-0.353,0.876-0.68,1.677-1.756,1.978   c-0.846,0.236-1.604,0.769-2.426,1.112c-0.587,0.246-1.146,0.01-1.646-0.312c-1.756-1.133-3.412-2.418-5.769-1.935   c-0.743,0.153-0.899,0.353-0.849,0.979c0.167,2.087,1.036,3.914,2.097,5.667c0.094,0.155,0.41,0.23,0.348,0.455   c-0.343,1.239,0.368,2.217,0.766,3.275c1.302,3.463,1.171,6.932-1.098,9.82c-1.549,1.972-2.13,4.087-2.366,6.356   c-0.384,3.709-2.208,6.729-4.478,9.426c-2.066,2.453-4.537,4.568-6.677,6.984c-0.656,0.741-1.403,1.398-2.233,1.995   c-1.345,0.966-2.681,2.066-3.558,3.47c-0.945,1.515-2.481,2.527-3.257,4.148c-0.253,0.53-0.677,0.435-0.85,0.038   c-0.531-1.219-1.517-2.156-2.051-3.352c-1.743-3.891-1.811-8.09-2.11-12.233c-0.077-1.062-0.211-2.072-0.609-3.051   c-1.174-2.877-3.188-5.113-5.446-7.166l-0.035,0.021c-0.117-0.376-0.37-0.521-0.754-0.44c-2.042-1.196-4.083-2.393-6.125-3.591   c-0.094-0.999-1.703-2.759-2.745-3.003c-0.289-0.604-0.53-0.421-0.755,0.045C7.704,26.256,8.079,26.8,8.34,27.293   c1.275,2.414,3.283,4.175,5.594,5.44c1.891,1.034,3.714,2.045,5.08,3.738c1.894,2.349,3.323,4.829,3.053,8.05   c-0.235,2.803,0.197,5.606,0.591,8.377c0.521,3.668,2.236,6.829,4.645,9.617c0.701,0.812,1.013,1.687,1.098,2.793   c0.15,1.954,0.931,3.709,2.634,4.857c0.87,0.586,1.831,1.039,2.747,1.56c0.562,0.319,0.841,0.683,0.43,1.37   c-0.514,0.857-0.876,1.805-1.38,2.668c-0.408,0.7-0.433,1.322-0.214,2.118c0.515,1.869,1.261,3.701,0.885,5.747   c-0.21,1.143-0.13,2.306-1.031,3.25c-0.383,0.401-0.596,1.013-0.762,1.564c-0.408,1.368,0.629,3.037,2.298,2.482   c0.985-0.328,1.271-0.123,1.473,0.874c0.307,1.513,2.534,2.624,3.71,1.896c0.842-0.521,1.269-1.456,1.336-2.413   c0.143-2.035-0.283-3.99-1.175-5.833c-0.716-1.482-1.195-3.042-1.325-4.678c-0.112-1.41,0.387-1.946,1.774-1.977   c1.473-0.033,2.946,0.035,4.419,0.031c2.969-0.01,5.105-1.525,5.907-4.38c0.466-1.66,0.678-3.391,0.999-5.089   c0.317-1.681,0.746-3.264,2.166-4.453c1.598-1.339,2.636-3.221,4.148-4.641c1.797-1.688,3.104-3.784,4.829-5.518   c1.286-1.294,2.283-3.024,4.418-3.157c0.498-0.03,0.988-0.166,1.485-0.226c1.287-0.155,2.477-1.084,3.658-1.022   c2.07,0.105,4.394-0.595,6.166,1.2c0.133,0.135,0.36,0.216,0.556,0.244c1.32,0.188,2.51,0.143,3.668-0.82   c1.136-0.944,1.367-1.432,0.35-2.547c-0.38-0.418-1.098-0.674-1.241-1.135c-0.369-1.189-0.733-0.218-1.103-0.095   c-0.145-0.104-0.29-0.207-0.436-0.312c-0.012-0.062-0.032-0.123-0.062-0.181c-0.104-0.094-0.208-0.188-0.313-0.281   c-1.09-0.629-2.176-1.281-3.515-0.76c-0.586,0.009-1.172,0.017-1.758,0.023c-0.911-0.505-1.894-0.103-2.833-0.226   c-0.272-0.036-0.747,0.254-0.773-0.238c-0.027-0.521,0.481-0.465,0.834-0.469c0.755-0.008,1.511,0.013,2.266,0.033   c1.467,0.04,2.765-0.329,3.92-1.31c1.11-0.939,1.834-2.158,2.72-3.265c2.26-2.824,4.324-5.826,6.979-8.295   c0.447-0.417,0.884-1.352,1.865-1.134c0.562,0.124,1.093-0.111,1.642-0.218C91.826,30.352,92.428,29.867,92.332,28.72z"/>
</g>
</svg>