<svg xmlns="http://www.w3.org/2000/svg" xmlns:xlink="http://www.w3.org/1999/xlink" version="1.1" id="Your_Icon" x="0px" y="0px" width="100px" height="100px" viewBox="0 0 100 100" enable-background="new 0 0 100 100" xml:space="preserve">
<g>
	<g>
		<g>
			<path fill="#000000" d="M7.308,18.422c0.174-0.005,0.348-0.009,0.521-0.034c1.231-0.035,2.465-0.039,3.693,0.05     c1.248,0.088,2.493,0.237,3.729,0.442c1.263,0.203,2.519,0.458,3.75,0.808c2.897,0.813,5.682,2.114,8.052,3.985     c2.087,1.642,3.834,3.717,5.076,6.066c0.513,0.961,0.938,1.97,1.278,3.004c0.28,0.886,0.527,1.79,0.625,2.716     c-0.088-0.077-0.125-0.207-0.192-0.304c-0.585-1.012-1.261-1.989-2.132-2.776c-0.488-0.427-1.044-0.809-1.683-0.963     c-0.167-0.027-0.373-0.097-0.509,0.041c-1.228,0.85-2.588,1.495-3.985,2.011c-1.362,0.493-2.773,0.858-4.21,1.048     c-0.433,0.081-0.874,0.093-1.311,0.143c-0.364,0.008-0.726,0.058-1.091,0.045c-0.239,0.01-0.479,0.021-0.717,0.005     c-1.321-0.015-2.64-0.158-3.934-0.428c-1.054-0.215-2.095-0.502-3.104-0.876c-1.52-0.568-2.963-1.346-4.264-2.318     c-1.708-1.279-3.167-2.881-4.322-4.674c-1.129-1.763-2.002-3.697-2.53-5.724c-0.017-0.105-0.061-0.21-0.045-0.318     c0.613-0.391,1.288-0.675,1.972-0.916C3.689,18.848,5.501,18.562,7.308,18.422z M6.794,20.928     c-0.361,0.04-0.723,0.075-1.082,0.136c-0.074,0.014-0.184-0.002-0.219,0.083c-0.55,1.272-0.879,2.67-0.734,4.061     c0.036,0.107,0.116,0.192,0.176,0.287c1.232,1.781,2.833,3.313,4.701,4.414c1.39,0.831,2.922,1.403,4.495,1.773     c0.846,0.198,1.702,0.359,2.568,0.431c0.208,0.047,0.424,0.019,0.633,0.064c0.386,0.015,0.772,0.013,1.158,0.035     c0.382-0.025,0.767-0.015,1.149-0.039c0.187-0.039,0.381-0.012,0.568-0.052c1.596-0.15,3.169-0.526,4.67-1.092     c0.082-0.031,0.174-0.05,0.239-0.112c0.156-0.242,0.287-0.5,0.401-0.763c0.222-0.611,0.396-1.243,0.478-1.89     c0.075-0.637,0.077-1.289-0.018-1.924c-0.063-0.18-0.006-0.43-0.197-0.541c-2.26-1.842-4.962-3.093-7.77-3.838     c-0.068-0.021-0.137-0.05-0.209-0.041c0.011,0.244-0.012,0.486-0.037,0.728c-0.198,2.347-1.15,4.643-2.738,6.393     c-0.044,0.037-0.078,0.126-0.146,0.105c-0.352-1.025-0.618-2.08-0.819-3.145c-0.05-0.392-0.146-0.777-0.179-1.173     c-0.071-0.606-0.155-1.213-0.161-1.826c-0.045-0.425-0.031-0.856-0.025-1.284c-0.005-0.198,0.062-0.407,0.014-0.598     c-1.167-0.144-2.338-0.263-3.516-0.291c-0.299-0.017-0.599,0.003-0.897-0.023c-0.465,0.021-0.932,0.019-1.398,0.032     C7.533,20.884,7.161,20.886,6.794,20.928z M17.367,34.613l-0.004,0.036c0.179-0.004,0.359,0.007,0.539-0.002l-0.002-0.034     C17.721,34.604,17.544,34.61,17.367,34.613z"/>
		</g>
	</g>
	<g>
		<g>
			<path fill="#000000" d="M98.024,20.557c0.684,0.24,1.359,0.525,1.973,0.916c0.015,0.108-0.03,0.213-0.046,0.318     c-0.528,2.028-1.401,3.961-2.529,5.725c-1.155,1.793-2.614,3.396-4.322,4.674c-1.302,0.972-2.744,1.75-4.264,2.318     c-1.009,0.374-2.05,0.661-3.104,0.876c-1.294,0.27-2.612,0.414-3.934,0.428c-0.239,0.017-0.479,0.004-0.717-0.005     c-0.365,0.013-0.728-0.037-1.091-0.044c-0.437-0.05-0.879-0.062-1.311-0.143c-1.438-0.19-2.849-0.555-4.211-1.048     c-1.397-0.517-2.758-1.162-3.985-2.011c-0.137-0.138-0.343-0.068-0.51-0.041c-0.638,0.155-1.194,0.536-1.682,0.963     c-0.873,0.788-1.548,1.764-2.133,2.776c-0.068,0.097-0.104,0.228-0.192,0.304c0.099-0.926,0.345-1.83,0.625-2.716     c0.341-1.034,0.766-2.043,1.278-3.004c1.242-2.349,2.989-4.425,5.076-6.066c2.37-1.871,5.154-3.172,8.052-3.985     c1.23-0.35,2.487-0.604,3.75-0.807c1.235-0.206,2.481-0.354,3.729-0.443c1.228-0.089,2.462-0.084,3.693-0.049     c0.172,0.024,0.347,0.029,0.521,0.034C94.498,19.666,96.31,19.952,98.024,20.557z M92.101,21.941     c-0.466-0.014-0.933-0.011-1.398-0.033c-0.298,0.027-0.598,0.007-0.896,0.024c-1.179,0.027-2.351,0.146-3.517,0.29     c-0.048,0.191,0.02,0.4,0.015,0.598c0.005,0.428,0.02,0.858-0.025,1.284c-0.006,0.613-0.09,1.22-0.162,1.826     c-0.032,0.396-0.127,0.781-0.178,1.173c-0.201,1.065-0.467,2.119-0.818,3.145c-0.068,0.021-0.103-0.069-0.147-0.105     c-1.588-1.75-2.54-4.046-2.737-6.393c-0.025-0.241-0.049-0.484-0.037-0.728c-0.073-0.01-0.143,0.019-0.21,0.041     c-2.808,0.745-5.51,1.996-7.771,3.838c-0.189,0.111-0.133,0.36-0.196,0.541c-0.095,0.634-0.093,1.287-0.018,1.924     c0.081,0.646,0.255,1.278,0.477,1.889c0.115,0.264,0.246,0.521,0.402,0.763c0.063,0.062,0.156,0.082,0.238,0.113     c1.5,0.566,3.074,0.942,4.67,1.092c0.188,0.041,0.381,0.014,0.568,0.052c0.382,0.023,0.767,0.014,1.149,0.039     c0.385-0.022,0.771-0.021,1.157-0.035c0.209-0.045,0.424-0.017,0.633-0.064c0.866-0.071,1.723-0.233,2.567-0.43     c1.574-0.37,3.106-0.943,4.496-1.773c1.868-1.101,3.469-2.633,4.701-4.414c0.06-0.094,0.139-0.179,0.176-0.286     c0.145-1.391-0.185-2.789-0.734-4.061c-0.034-0.085-0.145-0.068-0.219-0.083c-0.358-0.061-0.72-0.095-1.082-0.135     C92.839,21.99,92.466,21.988,92.101,21.941z M82.1,35.716l-0.001,0.033c0.18,0.01,0.359-0.001,0.538,0.002l-0.004-0.035     C82.455,35.714,82.278,35.708,82.1,35.716z"/>
		</g>
	</g>
</g>
<g>
	<path fill="#000000" d="M39.779,48.31c0.788-0.602,1.826-0.699,2.784-0.667c1.978,0.09,3.88,0.684,5.807,1.085   c0.737,0.15,1.5,0.284,2.252,0.146c2.174-0.351,4.278-1.104,6.49-1.225c0.956-0.044,1.988,0.022,2.805,0.576   c0.627,0.42,0.979,1.134,1.145,1.852c0.1,0.45,0.089,0.942-0.12,1.361c-0.245,0.51-0.686,0.887-1.128,1.222   c-0.845,0.625-1.752,1.16-2.597,1.786c-0.732,0.54-1.429,1.13-2.055,1.791c-0.947,1.041-1.531,2.351-1.977,3.671   c-0.427,1.268-0.71,2.578-1.151,3.841c-0.255,0.713-0.591,1.439-1.208,1.909c-0.021,0.515,0.005,1.031-0.001,1.546   c0.113,2.803,0.739,5.596,1.924,8.144c0.999,2.16,2.429,4.123,4.197,5.717c0.782,0.714,1.64,1.339,2.521,1.925   c1.502,1.014,3.036,1.98,4.574,2.94c0.153,0.099,0.321,0.179,0.454,0.308c-1.285-0.214-2.555-0.522-3.786-0.946   c-1.208-0.42-2.387-0.942-3.452-1.652c-3.604-2.489-6.191-6.333-7.333-10.544c-0.085,0.142-0.112,0.308-0.162,0.464   c-0.737,2.395-1.9,4.666-3.481,6.613c-0.86,1.057-1.835,2.019-2.905,2.862c-1.695,1.373-3.771,2.176-5.858,2.735   c-0.73,0.193-1.47,0.352-2.216,0.467c0.57-0.389,1.171-0.732,1.75-1.109c1.236-0.782,2.469-1.569,3.676-2.396   c1.773-1.189,3.353-2.676,4.599-4.413c1.447-2.001,2.454-4.302,3.039-6.696c0.468-1.915,0.688-3.894,0.624-5.864   c0.017-0.118-0.093-0.18-0.168-0.248c-0.326-0.267-0.548-0.636-0.733-1.009c-0.379-0.785-0.595-1.633-0.835-2.468   c-0.322-1.161-0.646-2.327-1.127-3.435c-0.355-0.818-0.811-1.601-1.399-2.273c-1.104-1.205-2.456-2.146-3.82-3.03   c-0.667-0.459-1.384-0.896-1.867-1.562c-0.342-0.471-0.426-1.09-0.292-1.649C38.908,49.411,39.214,48.734,39.779,48.31z"/>
</g>
</svg>